<svg xmlns="http://www.w3.org/2000/svg" width="223" height="45" viewBox="0 0 223 45">
  <g id="Group_85" data-name="Group 85" transform="translate(-76 -479)">
    <g id="Path_10" data-name="Path 10" transform="translate(76 479)" fill="#fff">
      <path d="M 209 43 L 14 43 C 10.79467678070068 43 7.781235218048096 41.75179290771484 5.514735221862793 39.48529434204102 C 3.248205900192261 37.21879577636719 2 34.205322265625 2 31 L 2 14 C 2 10.79467678070068 3.248205900192261 7.781205654144287 5.514735221862793 5.514705657958984 C 7.781235218048096 3.248205900192261 10.79467678070068 2 14 2 L 209 2 C 212.205322265625 2 215.2187957763672 3.248205900192261 217.4852905273438 5.514705657958984 C 219.7518005371094 7.781205654144287 221 10.79467678070068 221 14 L 221 31 C 221 34.205322265625 219.7518005371094 37.21879577636719 217.4852905273438 39.48529434204102 C 215.2187957763672 41.75179290771484 212.205322265625 43 209 43 Z" stroke="none"/>
      <path d="M 14 4 C 8.4859619140625 4 4 8.485969543457031 4 14 L 4 31 C 4 36.51403045654297 8.4859619140625 41 14 41 L 209 41 C 214.5140380859375 41 219 36.51403045654297 219 31 L 219 14 C 219 8.485969543457031 214.5140380859375 4 209 4 L 14 4 M 14 0 L 209 0 C 216.7319946289063 0 223 6.268001556396484 223 14 L 223 31 C 223 38.73199844360352 216.7319946289063 45 209 45 L 14 45 C 6.26800537109375 45 0 38.73199844360352 0 31 L 0 14 C 0 6.268001556396484 6.26800537109375 0 14 0 Z" stroke="none" fill="#8aaefb"/>
    </g>
    <text id="Verder" transform="translate(139 512)" fill="#8aaefb" font-size="31" font-family="Arial-BoldMT, Arial" font-weight="700"><tspan x="0" y="0">Verder</tspan></text>
  </g>
</svg>
