<svg xmlns="http://www.w3.org/2000/svg" width="98.092" height="33.724" viewBox="0 0 98.092 33.724">
  <g id="Group_79" data-name="Group 79" transform="translate(-211 -37)">
    <g id="Path_9" data-name="Path 9" transform="translate(211 37)" fill="#8aaefb">
      <path d="M 88.06764221191406 31.7243480682373 L 10.02396011352539 31.7243480682373 C 7.953017234802246 31.7243480682373 5.982874393463135 30.72237777709961 4.476431846618652 28.90301895141602 C 2.879474401473999 26.9743480682373 2.000003099441528 24.38720512390137 2.000003099441528 21.61817741394043 L 2.000003099441528 12.10617733001709 C 2.000003099441528 9.337148666381836 2.879474401473999 6.75000524520874 4.476431846618652 4.821333885192871 C 5.982874393463135 3.00197696685791 7.953017234802246 2.000005483627319 10.02396011352539 2.000005483627319 L 88.06764221191406 2.000005483627319 C 90.13858795166016 2.000005483627319 92.10874938964844 3.00197696685791 93.61518859863281 4.821333885192871 C 95.21213531494141 6.75000524520874 96.09160614013672 9.337148666381836 96.09160614013672 12.10617733001709 L 96.09160614013672 21.61817741394043 C 96.09160614013672 24.38720512390137 95.21213531494141 26.9743480682373 93.61518859863281 28.90301895141602 C 92.10874938964844 30.72237777709961 90.13858795166016 31.7243480682373 88.06764221191406 31.7243480682373 Z" stroke="none"/>
      <path d="M 10.02397155761719 3.999994277954102 C 8.5595703125 3.999994277954102 7.136505126953125 4.74467658996582 6.01690673828125 6.096843719482422 C 4.735137939453125 7.644859313964844 4 9.835176467895508 4 12.10617637634277 L 4 21.6181755065918 C 4 23.8891773223877 4.735137939453125 26.07949447631836 6.01690673828125 27.62751007080078 C 7.136505126953125 28.97967720031738 8.5595703125 29.7243595123291 10.02397155761719 29.7243595123291 L 88.06763458251953 29.7243595123291 C 89.53203582763672 29.7243595123291 90.95510101318359 28.97967720031738 92.07470703125 27.62751007080078 C 93.35646820068359 26.07949447631836 94.09160614013672 23.8891773223877 94.09160614013672 21.6181755065918 L 94.09160614013672 12.10617637634277 C 94.09160614013672 9.835176467895508 93.35646820068359 7.644859313964844 92.07470703125 6.096843719482422 C 90.95510101318359 4.74467658996582 89.53203582763672 3.999994277954102 88.06763458251953 3.999994277954102 L 10.02397155761719 3.999994277954102 M 10.02397155761719 -7.62939453125e-06 L 88.06763458251953 -7.62939453125e-06 C 93.60373687744141 -7.62939453125e-06 98.09160614013672 5.420125961303711 98.09160614013672 12.10617637634277 L 98.09160614013672 21.6181755065918 C 98.09160614013672 28.30422592163086 93.60373687744141 33.72436141967773 88.06763458251953 33.72436141967773 L 10.02397155761719 33.72436141967773 C 4.487869262695313 33.72436141967773 0 28.30422592163086 0 21.6181755065918 L 0 12.10617637634277 C 0 5.420125961303711 4.487869262695313 -7.62939453125e-06 10.02397155761719 -7.62939453125e-06 Z" stroke="none" fill="#8aaefb"/>
    </g>
    <text id="Paniek_" data-name="Paniek!" transform="translate(230.893 60.724)" fill="#fff" font-size="16" font-family="Arial-BoldMT, Arial" font-weight="700"><tspan x="0" y="0">Paniek</tspan><tspan y="0" font-size="18">!</tspan></text>
  </g>
</svg>
