<svg xmlns="http://www.w3.org/2000/svg" width="56.386" height="36.77" viewBox="0 0 56.386 36.77">
  <g id="Group_66" data-name="Group 66" transform="translate(-292.752 -612.766)">
    <path id="Union_1" data-name="Union 1" d="M0,23.641V1.359A1.359,1.359,0,0,1,1.359,0H23.641a1.359,1.359,0,1,1,0,2.717H2.717V23.641a1.359,1.359,0,1,1-2.717,0Z" transform="translate(348.431 631.151) rotate(135)" fill="#8aaefb" stroke="#8aaefb" stroke-linecap="round" stroke-linejoin="round" stroke-width="1"/>
    <path id="Union_7" data-name="Union 7" d="M-2803.641,26A1.359,1.359,0,0,1-2805,24.641V-7.641A1.359,1.359,0,0,1-2803.641-9h22.282A1.359,1.359,0,0,1-2780-7.641a1.359,1.359,0,0,1-1.359,1.358h-20.924V23.283h20.924A1.359,1.359,0,0,1-2780,24.641,1.359,1.359,0,0,1-2781.359,26Z" transform="translate(3098.253 622.651)" fill="#8aaefb" stroke="#8aaefb" stroke-linecap="round" stroke-linejoin="round" stroke-width="1"/>
    <text id="Verder" transform="translate(301 635)" fill="#8aaefb" font-size="11" font-family="Arial-BoldMT, Arial" font-weight="700"><tspan x="0" y="0">Verder</tspan></text>
  </g>
</svg>
